<svg width="231" height="85" viewBox="0 0 231 85" fill="none" xmlns="http://www.w3.org/2000/svg">
<g filter="url(#filter0_d_1_80)">
<path d="M16.7656 19.6875H26.9375C28.4844 19.6875 29.7891 19.1875 30.8516 18.1875C31.9297 17.1875 32.4688 15.7656 32.4688 13.9219C32.4688 12.5625 31.9062 11.3438 30.7812 10.2656C29.6562 9.17187 28.375 8.625 26.9375 8.625H12.4531V39H10.7656V6.9375H26.9375C28.8438 6.9375 30.5234 7.64844 31.9766 9.07031C33.4297 10.4766 34.1562 12.0938 34.1562 13.9219C34.1562 16.1719 33.4531 17.9766 32.0469 19.3359C30.6406 20.6953 28.9375 21.375 26.9375 21.375H16.7656V19.6875ZM16.7656 23.0625H26.9375C29.375 23.0625 31.4688 22.2109 33.2188 20.5078C34.9688 18.7891 35.8438 16.5938 35.8438 13.9219C35.8438 11.625 34.9453 9.60938 33.1484 7.875C31.3672 6.125 29.2969 5.25 26.9375 5.25H9.07812V39H7.39062V3.5625H26.9375C28.7969 3.5625 30.5391 4.03906 32.1641 4.99219C33.8047 5.94531 35.1094 7.22656 36.0781 8.83594C37.0469 10.4297 37.5312 12.125 37.5312 13.9219C37.5312 17 36.4844 19.5781 34.3906 21.6562C32.3125 23.7188 29.8281 24.75 26.9375 24.75H16.7656V23.0625ZM16.7656 26.4375H26.9375C29.125 26.4375 31.1562 25.8984 33.0312 24.8203C34.9062 23.7422 36.4062 22.2422 37.5312 20.3203C38.6562 18.3828 39.2188 16.25 39.2188 13.9219C39.2188 11.8125 38.6562 9.83594 37.5312 7.99219C36.4219 6.13281 34.9219 4.64844 33.0312 3.53906C31.1406 2.42969 29.1094 1.875 26.9375 1.875H5.70312V39H4.01562V0.1875H26.9375C29.3906 0.1875 31.6953 0.820312 33.8516 2.08594C36.0078 3.33594 37.7188 5.02344 38.9844 7.14844C40.2656 9.25781 40.9062 11.5156 40.9062 13.9219C40.9062 16.7031 40.3047 19.1484 39.1016 21.2578C37.9141 23.3672 36.2969 25.0156 34.25 26.2031L38.6094 39H36.8281L32.6562 27C32.0312 27.25 31.5547 27.4219 31.2266 27.5156L35.1406 39H33.3594L29.5391 27.9141C29.3984 27.9453 28.8984 28 28.0391 28.0781L31.6719 39H29.8906L26.3047 28.125H24.7812L28.2031 39H26.4219L22.9766 28.125H16.7656V26.4375ZM15.8281 39H14.1406V10.3125H26.9375C27.9844 10.3125 28.8828 10.6719 29.6328 11.3906C30.3984 12.0938 30.7812 12.9375 30.7812 13.9219C30.7812 16.6406 29.5 18 26.9375 18H16.7656V16.3125H26.9375C27.6094 16.3125 28.1328 16.1406 28.5078 15.7969C28.8984 15.4375 29.0938 14.8125 29.0938 13.9219C29.0938 13.375 28.8828 12.9219 28.4609 12.5625C28.0547 12.1875 27.5469 12 26.9375 12H15.8281V39ZM68.4688 22.3594C68.4688 20.3594 67.8516 18.8125 66.6172 17.7188C65.3828 16.625 63.75 16.0781 61.7188 16.0781C60 16.0781 58.5234 16.6719 57.2891 17.8594C56.0547 19.0469 55.4375 20.4688 55.4375 22.125C55.4375 23.0625 55.5625 23.9062 55.8125 24.6562C56.0625 25.3906 56.3984 26.0078 56.8203 26.5078C57.2578 26.9922 57.7734 27.3984 58.3672 27.7266C58.9609 28.0391 59.5781 28.2656 60.2188 28.4062C60.875 28.5469 61.5703 28.6172 62.3047 28.6172C64.0859 28.6172 65.7109 28.1797 67.1797 27.3047V28.9922C65.6641 29.7891 64.0312 30.1875 62.2812 30.1875C61.1562 30.1875 60.0938 30.0391 59.0938 29.7422C58.1094 29.4297 57.2109 28.9688 56.3984 28.3594C55.5859 27.7344 54.9375 26.8906 54.4531 25.8281C53.9844 24.75 53.75 23.5156 53.75 22.125C53.75 19.9688 54.5078 18.1406 56.0234 16.6406C57.5391 15.1406 59.4375 14.3906 61.7188 14.3906C64.2344 14.3906 66.2656 15.1016 67.8125 16.5234C69.375 17.9297 70.1562 19.875 70.1562 22.3594V39H68.4688V22.3594ZM73.5312 22.3594V39H71.8438V22.3594C71.8438 19.4062 70.8984 17.0625 69.0078 15.3281C67.1172 13.5781 64.6875 12.7031 61.7188 12.7031C58.9688 12.7031 56.6719 13.6172 54.8281 15.4453C52.9844 17.2734 52.0625 19.5 52.0625 22.125C52.0625 23.7188 52.3359 25.1484 52.8828 26.4141C53.4453 27.6797 54.2031 28.6953 55.1562 29.4609C56.1094 30.2266 57.1719 30.8125 58.3438 31.2188C59.5312 31.6094 60.7812 31.8047 62.0938 31.8047C63.875 31.8047 65.5703 31.3906 67.1797 30.5625V32.3438C65.4922 33.0469 63.7891 33.3984 62.0703 33.3984C60.5234 33.3984 59.0547 33.1641 57.6641 32.6953C56.2734 32.2109 55.0312 31.5156 53.9375 30.6094C52.8438 29.6875 51.9766 28.5 51.3359 27.0469C50.6953 25.5781 50.375 23.9375 50.375 22.125C50.375 19.0469 51.4609 16.4297 53.6328 14.2734C55.8203 12.1016 58.5156 11.0156 61.7188 11.0156C63.9688 11.0156 65.9844 11.4766 67.7656 12.3984C69.5469 13.3047 70.9531 14.625 71.9844 16.3594C73.0156 18.0938 73.5312 20.0938 73.5312 22.3594ZM76.9062 22.3594V39H75.2188V22.3594C75.2188 19.7812 74.625 17.5 73.4375 15.5156C72.2656 13.5156 70.6562 11.9844 68.6094 10.9219C66.5625 9.85938 64.2656 9.32812 61.7188 9.32812C59.2969 9.32812 57.0859 9.90625 55.0859 11.0625C53.0859 12.2031 51.5156 13.75 50.375 15.7031C49.25 17.6562 48.6875 19.7969 48.6875 22.125C48.6875 24.125 49.0547 25.9531 49.7891 27.6094C50.5234 29.25 51.5078 30.6016 52.7422 31.6641C53.9922 32.7266 55.4062 33.5547 56.9844 34.1484C58.5781 34.7266 60.2422 35.0156 61.9766 35.0156C63.7422 35.0156 65.4766 34.6484 67.1797 33.9141V35.625C65.3984 36.2969 63.6484 36.6328 61.9297 36.6328C59.2266 36.6328 56.7422 36.0234 54.4766 34.8047C52.2109 33.5859 50.3984 31.8594 49.0391 29.625C47.6797 27.3906 47 24.8906 47 22.125C47 20.1562 47.375 18.2812 48.125 16.5C48.8906 14.7188 49.9219 13.1797 51.2188 11.8828C52.5156 10.5859 54.0781 9.55469 55.9062 8.78906C57.7344 8.02344 59.6719 7.64062 61.7188 7.64062C64.5781 7.64062 67.1562 8.25 69.4531 9.46875C71.7656 10.6875 73.5859 12.4219 74.9141 14.6719C76.2422 16.9219 76.9062 19.4844 76.9062 22.3594ZM80.2812 22.3594V39H78.5938V22.3594C78.5938 19.1719 77.8516 16.3281 76.3672 13.8281C74.8828 11.3125 72.8594 9.375 70.2969 8.01562C67.7344 6.64062 64.875 5.95312 61.7188 5.95312C58.6875 5.95312 55.9141 6.67969 53.3984 8.13281C50.8828 9.58594 48.9062 11.5547 47.4688 14.0391C46.0312 16.5078 45.3125 19.2031 45.3125 22.125C45.3125 24.0469 45.6172 25.875 46.2266 27.6094C46.8516 29.3281 47.6953 30.8359 48.7578 32.1328C49.8359 33.4141 51.0703 34.5234 52.4609 35.4609C53.8672 36.3984 55.375 37.1094 56.9844 37.5938C58.6094 38.0781 60.2578 38.3203 61.9297 38.3203C63.7734 38.3203 65.5234 37.9688 67.1797 37.2656V39C65.4453 39.6094 63.6641 39.9141 61.8359 39.9141C59.9453 39.9141 58.1016 39.6484 56.3047 39.1172C54.5234 38.5859 52.8672 37.8047 51.3359 36.7734C49.8203 35.7266 48.4844 34.5 47.3281 33.0938C46.1719 31.6719 45.2656 30.0156 44.6094 28.125C43.9531 26.2344 43.625 24.2344 43.625 22.125C43.625 19.7031 44.0781 17.3984 44.9844 15.2109C45.9062 13.0078 47.1562 11.1094 48.7344 9.51562C50.3281 7.90625 52.25 6.63281 54.5 5.69531C56.7656 4.74219 59.1719 4.26562 61.7188 4.26562C64.3125 4.26562 66.75 4.70313 69.0312 5.57812C71.3125 6.45312 73.2812 7.67187 74.9375 9.23438C76.5938 10.7812 77.8984 12.6875 78.8516 14.9531C79.8047 17.2188 80.2812 19.6875 80.2812 22.3594ZM90.4297 14.6016H92.1172V39H90.4297V14.6016ZM83.6797 6.9375V5.25H108.992V6.9375H83.6797ZM83.6797 10.3125V8.625H108.992V10.3125H83.6797ZM83.6797 13.6875V12H108.992V13.6875H83.6797ZM100.555 14.6016H102.242V39H100.555V14.6016ZM97.1797 14.6016H98.8672V39H97.1797V14.6016ZM93.8047 14.6016H95.4922V39H93.8047V14.6016ZM121.156 39H119.469V5.25H121.156V39ZM117.781 39H116.094V5.25H117.781V39ZM114.406 39H112.719V5.25H114.406V39ZM124.531 30.5625H140.68V32.25H124.531V33.9375H140.68V35.625H124.531V37.3125H140.68V39H122.844V5.25H140.68V6.9375H124.531V8.625H140.68V10.3125H124.531V12H140.68V13.6875H124.531V17.8828H139.742V19.5703H124.531V21.2578H139.742V22.9453H124.531V24.6328H139.742V26.3203H124.531V30.5625ZM177.875 24.8438L179.562 21.6562V39H177.875V24.8438ZM181.25 18.375L182.938 15.1875V39H181.25V18.375ZM184.625 12L186.312 8.78906V39H184.625V12ZM173.305 24.0469L172.344 22.2891L183.969 0.1875H185.867L173.305 24.0469ZM171.359 20.3672L170.375 18.5859L180.125 0.1875H182.047L171.359 20.3672ZM160.062 21.8438L161.75 25.0312V39H160.062V21.8438ZM156.688 15.4219L158.375 18.6094V39H156.688V15.4219ZM153.312 9L155 12.2109V39H153.312V9ZM166.953 28.875H165.055L151.625 3.39844V39H149.938V0.1875H151.836L166.953 28.875ZM170.773 28.875H168.852L153.758 0.1875H155.68L170.773 28.875ZM188 3.39844L174.57 28.875H172.648L157.578 0.1875H159.477L173.633 27.0938L187.766 0.1875H189.688V39H188V3.39844ZM224.773 5.25H226.461L215.844 27.6094V39H214.156V27.6094L224.773 5.25ZM221.398 5.25H223.086L212.469 27.6094V39H210.781V27.6094L221.398 5.25ZM218.023 5.25H219.711L209.094 27.6094V39H207.406V27.6094L218.023 5.25ZM214.648 5.25H216.336L205.719 27.6094V39H204.031V27.6094L192.711 5.25H194.398L204.852 25.8984L214.648 5.25ZM196.109 5.25H197.797L206.164 21.1641L205.32 23.0156L196.109 5.25ZM199.484 5.25H201.195L207.852 17.4609L206.984 19.3125L199.484 5.25ZM202.906 5.25H204.594L209.539 13.7812L208.695 15.6328L202.906 5.25ZM58.7422 49.4531L57.3594 50.3672C56.5156 49.1172 55.4141 48.1328 54.0547 47.4141C52.7109 46.6797 51.25 46.3125 49.6719 46.3125C47.1094 46.3125 44.9219 47.2188 43.1094 49.0312C41.2969 50.8438 40.3906 53.0312 40.3906 55.5938C40.3906 58.1562 41.2969 60.3438 43.1094 62.1562C44.9219 63.9688 47.1094 64.875 49.6719 64.875C51.25 64.875 52.7109 64.5078 54.0547 63.7734C55.4141 63.0391 56.5156 62.0469 57.3594 60.7969L58.7188 61.7812C57.7188 63.25 56.4219 64.4141 54.8281 65.2734C53.2344 66.1328 51.5156 66.5625 49.6719 66.5625C48.1875 66.5625 46.7656 66.2734 45.4062 65.6953C44.0625 65.1172 42.8984 64.3359 41.9141 63.3516C40.9297 62.3672 40.1484 61.2031 39.5703 59.8594C38.9922 58.5 38.7031 57.0781 38.7031 55.5938C38.7031 54.1094 38.9922 52.6953 39.5703 51.3516C40.1484 49.9922 40.9297 48.8203 41.9141 47.8359C42.8984 46.8516 44.0625 46.0703 45.4062 45.4922C46.7656 44.9141 48.1875 44.625 49.6719 44.625C51.5312 44.625 53.2578 45.0625 54.8516 45.9375C56.4453 46.7969 57.7422 47.9688 58.7422 49.4531ZM61.5312 47.5312L60.125 48.4453C58.9688 46.7578 57.4688 45.4219 55.625 44.4375C53.7969 43.4375 51.8125 42.9375 49.6719 42.9375C47.375 42.9375 45.2578 43.5078 43.3203 44.6484C41.3828 45.7734 39.8438 47.3047 38.7031 49.2422C37.5781 51.1797 37.0156 53.2969 37.0156 55.5938C37.0156 57.8906 37.5781 60.0078 38.7031 61.9453C39.8438 63.8828 41.3828 65.4219 43.3203 66.5625C45.2578 67.6875 47.375 68.25 49.6719 68.25C51.8125 68.25 53.8047 67.75 55.6484 66.75C57.4922 65.75 58.9922 64.3984 60.1484 62.6953L61.5312 63.6562C60.2188 65.5938 58.5156 67.125 56.4219 68.25C54.3438 69.375 52.0938 69.9375 49.6719 69.9375C47.0781 69.9375 44.6797 69.2969 42.4766 68.0156C40.2734 66.7344 38.5312 64.9922 37.25 62.7891C35.9688 60.5859 35.3281 58.1875 35.3281 55.5938C35.3281 53 35.9688 50.6016 37.25 48.3984C38.5312 46.1953 40.2734 44.4531 42.4766 43.1719C44.6797 41.8906 47.0781 41.25 49.6719 41.25C52.0938 41.25 54.3438 41.8125 56.4219 42.9375C58.5156 44.0625 60.2188 45.5938 61.5312 47.5312ZM64.3438 45.6562L62.9375 46.5703C61.4688 44.4141 59.5625 42.7109 57.2188 41.4609C54.8906 40.1953 52.375 39.5625 49.6719 39.5625C47.5 39.5625 45.4219 39.9844 43.4375 40.8281C41.4531 41.6719 39.7422 42.8125 38.3047 44.25C36.8828 45.6719 35.75 47.375 34.9062 49.3594C34.0625 51.3438 33.6406 53.4219 33.6406 55.5938C33.6406 57.7656 34.0625 59.8438 34.9062 61.8281C35.75 63.8125 36.8828 65.5234 38.3047 66.9609C39.7422 68.3828 41.4531 69.5156 43.4375 70.3594C45.4219 71.2031 47.5 71.625 49.6719 71.625C52.3906 71.625 54.9141 70.9922 57.2422 69.7266C59.5703 68.4609 61.4688 66.75 62.9375 64.5938L64.2969 65.6016C62.6719 67.9766 60.5703 69.8594 57.9922 71.25C55.4297 72.625 52.6562 73.3125 49.6719 73.3125C46.4688 73.3125 43.5078 72.5234 40.7891 70.9453C38.0703 69.3516 35.9141 67.1953 34.3203 64.4766C32.7422 61.7578 31.9531 58.7969 31.9531 55.5938C31.9531 52.3906 32.7422 49.4297 34.3203 46.7109C35.9141 43.9922 38.0703 41.8438 40.7891 40.2656C43.5078 38.6719 46.4688 37.875 49.6719 37.875C52.6719 37.875 55.4609 38.5781 58.0391 39.9844C60.6172 41.375 62.7188 43.2656 64.3438 45.6562ZM67.1094 43.7344L65.7031 44.6484C63.9219 42.0391 61.6172 39.9766 58.7891 38.4609C55.9766 36.9453 52.9375 36.1875 49.6719 36.1875C47.0469 36.1875 44.5312 36.7031 42.125 37.7344C39.7344 38.75 37.6719 40.125 35.9375 41.8594C34.2031 43.5938 32.8203 45.6641 31.7891 48.0703C30.7734 50.4609 30.2656 52.9688 30.2656 55.5938C30.2656 58.2188 30.7734 60.7344 31.7891 63.1406C32.8203 65.5312 34.2031 67.5938 35.9375 69.3281C37.6719 71.0625 39.7344 72.4453 42.125 73.4766C44.5312 74.4922 47.0469 75 49.6719 75C52.9375 75 55.9844 74.2344 58.8125 72.7031C61.6406 71.1719 63.9453 69.1016 65.7266 66.4922L67.0859 67.5234C65.1484 70.3359 62.6484 72.5703 59.5859 74.2266C56.5234 75.8672 53.2188 76.6875 49.6719 76.6875C46.8125 76.6875 44.0781 76.125 41.4688 75C38.875 73.8906 36.6328 72.3984 34.7422 70.5234C32.8672 68.6328 31.3672 66.3906 30.2422 63.7969C29.1328 61.1875 28.5781 58.4531 28.5781 55.5938C28.5781 52.7344 29.1328 50.0078 30.2422 47.4141C31.3672 44.8047 32.8672 42.5625 34.7422 40.6875C36.6328 38.7969 38.875 37.2969 41.4688 36.1875C44.0781 35.0625 46.8125 34.5 49.6719 34.5C53.2344 34.5 56.5469 35.3281 59.6094 36.9844C62.6719 38.6406 65.1719 40.8906 67.1094 43.7344ZM70.3672 41.25H72.0547V75H70.3672V41.25ZM80.4922 41.25H82.1797V66.5625H94.625V68.25H82.1797V69.9375H94.625V71.625H82.1797V73.3125H94.625V75H80.4922V41.25ZM77.1172 41.25H78.8047V75H77.1172V41.25ZM73.7422 41.25H75.4297V75H73.7422V41.25ZM122.305 58.3594C122.305 56.3594 121.688 54.8125 120.453 53.7188C119.219 52.625 117.586 52.0781 115.555 52.0781C113.836 52.0781 112.359 52.6719 111.125 53.8594C109.891 55.0469 109.273 56.4688 109.273 58.125C109.273 59.0625 109.398 59.9062 109.648 60.6562C109.898 61.3906 110.234 62.0078 110.656 62.5078C111.094 62.9922 111.609 63.3984 112.203 63.7266C112.797 64.0391 113.414 64.2656 114.055 64.4062C114.711 64.5469 115.406 64.6172 116.141 64.6172C117.922 64.6172 119.547 64.1797 121.016 63.3047V64.9922C119.5 65.7891 117.867 66.1875 116.117 66.1875C114.992 66.1875 113.93 66.0391 112.93 65.7422C111.945 65.4297 111.047 64.9688 110.234 64.3594C109.422 63.7344 108.773 62.8906 108.289 61.8281C107.82 60.75 107.586 59.5156 107.586 58.125C107.586 55.9688 108.344 54.1406 109.859 52.6406C111.375 51.1406 113.273 50.3906 115.555 50.3906C118.07 50.3906 120.102 51.1016 121.648 52.5234C123.211 53.9297 123.992 55.875 123.992 58.3594V75H122.305V58.3594ZM127.367 58.3594V75H125.68V58.3594C125.68 55.4062 124.734 53.0625 122.844 51.3281C120.953 49.5781 118.523 48.7031 115.555 48.7031C112.805 48.7031 110.508 49.6172 108.664 51.4453C106.82 53.2734 105.898 55.5 105.898 58.125C105.898 59.7188 106.172 61.1484 106.719 62.4141C107.281 63.6797 108.039 64.6953 108.992 65.4609C109.945 66.2266 111.008 66.8125 112.18 67.2188C113.367 67.6094 114.617 67.8047 115.93 67.8047C117.711 67.8047 119.406 67.3906 121.016 66.5625V68.3438C119.328 69.0469 117.625 69.3984 115.906 69.3984C114.359 69.3984 112.891 69.1641 111.5 68.6953C110.109 68.2109 108.867 67.5156 107.773 66.6094C106.68 65.6875 105.812 64.5 105.172 63.0469C104.531 61.5781 104.211 59.9375 104.211 58.125C104.211 55.0469 105.297 52.4297 107.469 50.2734C109.656 48.1016 112.352 47.0156 115.555 47.0156C117.805 47.0156 119.82 47.4766 121.602 48.3984C123.383 49.3047 124.789 50.625 125.82 52.3594C126.852 54.0938 127.367 56.0938 127.367 58.3594ZM130.742 58.3594V75H129.055V58.3594C129.055 55.7812 128.461 53.5 127.273 51.5156C126.102 49.5156 124.492 47.9844 122.445 46.9219C120.398 45.8594 118.102 45.3281 115.555 45.3281C113.133 45.3281 110.922 45.9062 108.922 47.0625C106.922 48.2031 105.352 49.75 104.211 51.7031C103.086 53.6562 102.523 55.7969 102.523 58.125C102.523 60.125 102.891 61.9531 103.625 63.6094C104.359 65.25 105.344 66.6016 106.578 67.6641C107.828 68.7266 109.242 69.5547 110.82 70.1484C112.414 70.7266 114.078 71.0156 115.812 71.0156C117.578 71.0156 119.312 70.6484 121.016 69.9141V71.625C119.234 72.2969 117.484 72.6328 115.766 72.6328C113.062 72.6328 110.578 72.0234 108.312 70.8047C106.047 69.5859 104.234 67.8594 102.875 65.625C101.516 63.3906 100.836 60.8906 100.836 58.125C100.836 56.1562 101.211 54.2812 101.961 52.5C102.727 50.7188 103.758 49.1797 105.055 47.8828C106.352 46.5859 107.914 45.5547 109.742 44.7891C111.57 44.0234 113.508 43.6406 115.555 43.6406C118.414 43.6406 120.992 44.25 123.289 45.4688C125.602 46.6875 127.422 48.4219 128.75 50.6719C130.078 52.9219 130.742 55.4844 130.742 58.3594ZM134.117 58.3594V75H132.43V58.3594C132.43 55.1719 131.688 52.3281 130.203 49.8281C128.719 47.3125 126.695 45.375 124.133 44.0156C121.57 42.6406 118.711 41.9531 115.555 41.9531C112.523 41.9531 109.75 42.6797 107.234 44.1328C104.719 45.5859 102.742 47.5547 101.305 50.0391C99.8672 52.5078 99.1484 55.2031 99.1484 58.125C99.1484 60.0469 99.4531 61.875 100.062 63.6094C100.688 65.3281 101.531 66.8359 102.594 68.1328C103.672 69.4141 104.906 70.5234 106.297 71.4609C107.703 72.3984 109.211 73.1094 110.82 73.5938C112.445 74.0781 114.094 74.3203 115.766 74.3203C117.609 74.3203 119.359 73.9688 121.016 73.2656V75C119.281 75.6094 117.5 75.9141 115.672 75.9141C113.781 75.9141 111.938 75.6484 110.141 75.1172C108.359 74.5859 106.703 73.8047 105.172 72.7734C103.656 71.7266 102.32 70.5 101.164 69.0938C100.008 67.6719 99.1016 66.0156 98.4453 64.125C97.7891 62.2344 97.4609 60.2344 97.4609 58.125C97.4609 55.7031 97.9141 53.3984 98.8203 51.2109C99.7422 49.0078 100.992 47.1094 102.57 45.5156C104.164 43.9062 106.086 42.6328 108.336 41.6953C110.602 40.7422 113.008 40.2656 115.555 40.2656C118.148 40.2656 120.586 40.7031 122.867 41.5781C125.148 42.4531 127.117 43.6719 128.773 45.2344C130.43 46.7812 131.734 48.6875 132.688 50.9531C133.641 53.2188 134.117 55.6875 134.117 58.3594ZM153.805 58.9453H151.133C147.852 58.9453 145.328 58.2812 143.562 56.9531C141.797 55.6094 140.914 53.7656 140.914 51.4219C140.914 49.2344 141.953 47.4141 144.031 45.9609C146.109 44.4922 149.023 43.7578 152.773 43.7578C155.273 43.7578 157.602 44.1016 159.758 44.7891C161.93 45.4766 163.734 46.4453 165.172 47.6953L163.859 48.75C162.578 47.7031 160.969 46.8906 159.031 46.3125C157.094 45.7344 155.008 45.4453 152.773 45.4453C149.477 45.4453 146.953 46.0078 145.203 47.1328C143.469 48.2578 142.602 49.6875 142.602 51.4219C142.602 53.2969 143.312 54.7422 144.734 55.7578C146.172 56.7578 148.305 57.2578 151.133 57.2578H153.711C157.039 57.2578 159.586 57.9297 161.352 59.2734C163.133 60.6016 164.023 62.4375 164.023 64.7812C164.023 66.9688 162.984 68.7969 160.906 70.2656C158.828 71.7188 155.914 72.4453 152.164 72.4453C149.664 72.4453 147.328 72.1016 145.156 71.4141C143 70.7266 141.203 69.7578 139.766 68.5078L141.078 67.4531C142.359 68.5 143.969 69.3125 145.906 69.8906C147.844 70.4688 149.93 70.7578 152.164 70.7578C155.461 70.7578 157.977 70.1953 159.711 69.0703C161.461 67.9453 162.336 66.5156 162.336 64.7812C162.336 62.9062 161.617 61.4688 160.18 60.4688C158.758 59.4531 156.633 58.9453 153.805 58.9453ZM153.805 62.3203H151.133C146.789 62.3203 143.438 61.3359 141.078 59.3672C138.719 57.3828 137.539 54.7344 137.539 51.4219C137.539 49.9062 137.875 48.4844 138.547 47.1562C139.219 45.8281 140.18 44.6641 141.43 43.6641C142.695 42.6484 144.305 41.8516 146.258 41.2734C148.211 40.6797 150.383 40.3828 152.773 40.3828C155.789 40.3828 158.609 40.8438 161.234 41.7656C163.859 42.6719 166.047 43.9453 167.797 45.5859L166.438 46.5938C164.844 45.1562 162.852 44.0469 160.461 43.2656C158.07 42.4688 155.508 42.0703 152.773 42.0703C148.555 42.0703 145.242 42.9609 142.836 44.7422C140.43 46.5234 139.227 48.75 139.227 51.4219C139.227 54.25 140.258 56.4922 142.32 58.1484C144.383 59.8047 147.32 60.6328 151.133 60.6328H153.711C158.336 60.6328 160.648 62.0156 160.648 64.7812C160.648 66.0312 159.938 67.0625 158.516 67.875C157.109 68.6719 154.992 69.0703 152.164 69.0703C150.18 69.0703 148.336 68.8438 146.633 68.3906C144.93 67.9219 143.523 67.2578 142.414 66.3984L143.75 65.3672C145.703 66.7109 148.508 67.3828 152.164 67.3828C154.508 67.3828 156.227 67.1406 157.32 66.6562C158.414 66.1719 158.961 65.5469 158.961 64.7812C158.961 63.8906 158.578 63.2578 157.812 62.8828C157.047 62.5078 155.711 62.3203 153.805 62.3203ZM153.805 55.5703H151.133C146.57 55.5703 144.289 54.1875 144.289 51.4219C144.289 50.1719 144.992 49.1484 146.398 48.3516C147.82 47.5391 149.945 47.1328 152.773 47.1328C154.758 47.1328 156.602 47.3672 158.305 47.8359C160.008 48.2891 161.414 48.9453 162.523 49.8047L161.188 50.8359C159.234 49.4922 156.43 48.8203 152.773 48.8203C150.43 48.8203 148.711 49.0625 147.617 49.5469C146.523 50.0312 145.977 50.6562 145.977 51.4219C145.977 52.3125 146.359 52.9453 147.125 53.3203C147.891 53.6953 149.227 53.8828 151.133 53.8828H153.805C158.148 53.8828 161.5 54.875 163.859 56.8594C166.219 58.8281 167.398 61.4688 167.398 64.7812C167.398 66.2969 167.062 67.7188 166.391 69.0469C165.719 70.375 164.75 71.5469 163.484 72.5625C162.234 73.5625 160.633 74.3594 158.68 74.9531C156.727 75.5312 154.555 75.8203 152.164 75.8203C149.148 75.8203 146.328 75.3672 143.703 74.4609C141.078 73.5391 138.891 72.2578 137.141 70.6172L138.5 69.6094C140.094 71.0469 142.086 72.1641 144.477 72.9609C146.867 73.7422 149.43 74.1328 152.164 74.1328C156.383 74.1328 159.695 73.2422 162.102 71.4609C164.508 69.6797 165.711 67.4531 165.711 64.7812C165.711 61.9531 164.68 59.7109 162.617 58.0547C160.555 56.3984 157.617 55.5703 153.805 55.5703ZM186.617 58.9453H183.945C180.664 58.9453 178.141 58.2812 176.375 56.9531C174.609 55.6094 173.727 53.7656 173.727 51.4219C173.727 49.2344 174.766 47.4141 176.844 45.9609C178.922 44.4922 181.836 43.7578 185.586 43.7578C188.086 43.7578 190.414 44.1016 192.57 44.7891C194.742 45.4766 196.547 46.4453 197.984 47.6953L196.672 48.75C195.391 47.7031 193.781 46.8906 191.844 46.3125C189.906 45.7344 187.82 45.4453 185.586 45.4453C182.289 45.4453 179.766 46.0078 178.016 47.1328C176.281 48.2578 175.414 49.6875 175.414 51.4219C175.414 53.2969 176.125 54.7422 177.547 55.7578C178.984 56.7578 181.117 57.2578 183.945 57.2578H186.523C189.852 57.2578 192.398 57.9297 194.164 59.2734C195.945 60.6016 196.836 62.4375 196.836 64.7812C196.836 66.9688 195.797 68.7969 193.719 70.2656C191.641 71.7188 188.727 72.4453 184.977 72.4453C182.477 72.4453 180.141 72.1016 177.969 71.4141C175.812 70.7266 174.016 69.7578 172.578 68.5078L173.891 67.4531C175.172 68.5 176.781 69.3125 178.719 69.8906C180.656 70.4688 182.742 70.7578 184.977 70.7578C188.273 70.7578 190.789 70.1953 192.523 69.0703C194.273 67.9453 195.148 66.5156 195.148 64.7812C195.148 62.9062 194.43 61.4688 192.992 60.4688C191.57 59.4531 189.445 58.9453 186.617 58.9453ZM186.617 62.3203H183.945C179.602 62.3203 176.25 61.3359 173.891 59.3672C171.531 57.3828 170.352 54.7344 170.352 51.4219C170.352 49.9062 170.688 48.4844 171.359 47.1562C172.031 45.8281 172.992 44.6641 174.242 43.6641C175.508 42.6484 177.117 41.8516 179.07 41.2734C181.023 40.6797 183.195 40.3828 185.586 40.3828C188.602 40.3828 191.422 40.8438 194.047 41.7656C196.672 42.6719 198.859 43.9453 200.609 45.5859L199.25 46.5938C197.656 45.1562 195.664 44.0469 193.273 43.2656C190.883 42.4688 188.32 42.0703 185.586 42.0703C181.367 42.0703 178.055 42.9609 175.648 44.7422C173.242 46.5234 172.039 48.75 172.039 51.4219C172.039 54.25 173.07 56.4922 175.133 58.1484C177.195 59.8047 180.133 60.6328 183.945 60.6328H186.523C191.148 60.6328 193.461 62.0156 193.461 64.7812C193.461 66.0312 192.75 67.0625 191.328 67.875C189.922 68.6719 187.805 69.0703 184.977 69.0703C182.992 69.0703 181.148 68.8438 179.445 68.3906C177.742 67.9219 176.336 67.2578 175.227 66.3984L176.562 65.3672C178.516 66.7109 181.32 67.3828 184.977 67.3828C187.32 67.3828 189.039 67.1406 190.133 66.6562C191.227 66.1719 191.773 65.5469 191.773 64.7812C191.773 63.8906 191.391 63.2578 190.625 62.8828C189.859 62.5078 188.523 62.3203 186.617 62.3203ZM186.617 55.5703H183.945C179.383 55.5703 177.102 54.1875 177.102 51.4219C177.102 50.1719 177.805 49.1484 179.211 48.3516C180.633 47.5391 182.758 47.1328 185.586 47.1328C187.57 47.1328 189.414 47.3672 191.117 47.8359C192.82 48.2891 194.227 48.9453 195.336 49.8047L194 50.8359C192.047 49.4922 189.242 48.8203 185.586 48.8203C183.242 48.8203 181.523 49.0625 180.43 49.5469C179.336 50.0312 178.789 50.6562 178.789 51.4219C178.789 52.3125 179.172 52.9453 179.938 53.3203C180.703 53.6953 182.039 53.8828 183.945 53.8828H186.617C190.961 53.8828 194.312 54.875 196.672 56.8594C199.031 58.8281 200.211 61.4688 200.211 64.7812C200.211 66.2969 199.875 67.7188 199.203 69.0469C198.531 70.375 197.562 71.5469 196.297 72.5625C195.047 73.5625 193.445 74.3594 191.492 74.9531C189.539 75.5312 187.367 75.8203 184.977 75.8203C181.961 75.8203 179.141 75.3672 176.516 74.4609C173.891 73.5391 171.703 72.2578 169.953 70.6172L171.312 69.6094C172.906 71.0469 174.898 72.1641 177.289 72.9609C179.68 73.7422 182.242 74.1328 184.977 74.1328C189.195 74.1328 192.508 73.2422 194.914 71.4609C197.32 69.6797 198.523 67.4531 198.523 64.7812C198.523 61.9531 197.492 59.7109 195.43 58.0547C193.367 56.3984 190.43 55.5703 186.617 55.5703Z" fill="white"/>
</g>
<defs>
<filter id="filter0_d_1_80" x="0.015625" y="0.1875" width="230.445" height="84.5" filterUnits="userSpaceOnUse" color-interpolation-filters="sRGB">
<feFlood flood-opacity="0" result="BackgroundImageFix"/>
<feColorMatrix in="SourceAlpha" type="matrix" values="0 0 0 0 0 0 0 0 0 0 0 0 0 0 0 0 0 0 127 0" result="hardAlpha"/>
<feOffset dy="4"/>
<feGaussianBlur stdDeviation="2"/>
<feComposite in2="hardAlpha" operator="out"/>
<feColorMatrix type="matrix" values="0 0 0 0 0 0 0 0 0 0 0 0 0 0 0 0 0 0 0.25 0"/>
<feBlend mode="normal" in2="BackgroundImageFix" result="effect1_dropShadow_1_80"/>
<feBlend mode="normal" in="SourceGraphic" in2="effect1_dropShadow_1_80" result="shape"/>
</filter>
</defs>
</svg>
